<svg width="65" height="65" viewBox="0 0 65 65" fill="none" xmlns="http://www.w3.org/2000/svg">
<path opacity="0.4" d="M52.6093 3.75537H44.831C41.7896 3.75537 39.7441 5.84403 39.7441 8.9507V16.1206C39.7441 19.2185 41.7896 21.3071 44.831 21.3071H52.6093C55.6506 21.3071 57.6872 19.2185 57.6872 16.1206V8.9507C57.6872 5.84403 55.6506 3.75537 52.6093 3.75537Z" fill="#0BEF94"/>
<path d="M47.6507 15.3814C47.4498 15.3814 47.2488 15.3068 47.0954 15.1568L44.9664 13.0743C44.6596 12.7741 44.6596 12.2879 44.9664 11.9887C45.2733 11.6885 45.7694 11.6877 46.0762 11.9878L47.6507 13.528L51.3542 9.90528C51.661 9.60514 52.1571 9.60514 52.4639 9.90528C52.7708 10.2054 52.7708 10.6916 52.4639 10.9917L48.2061 15.1568C48.0527 15.3068 47.8517 15.3814 47.6507 15.3814Z" fill="#0BEF94"/>
<path opacity="0.4" d="M50.6356 24.6277C49.4204 24.6277 47.8108 24.6014 45.8067 24.6014C40.9192 24.6014 36.9004 20.6443 36.9004 15.8185V7.35151C36.9004 6.68542 36.3567 6.14307 35.6825 6.14307H21.4463C14.8025 6.14307 9.43262 11.4771 9.43262 18.0142V46.3823C9.43262 53.2406 15.0584 58.7984 22.0006 58.7984H43.2004C49.8201 58.7984 55.1874 53.4986 55.1874 46.9562V25.8125C55.1874 25.1437 54.6464 24.604 53.9695 24.6067C52.8315 24.6146 51.4671 24.6277 50.6356 24.6277Z" fill="#64748B"/>
<path fill-rule="evenodd" clip-rule="evenodd" d="M24.1657 30.8582H33.2762C34.3824 30.8582 35.2814 29.9815 35.2814 28.8994C35.2814 27.8173 34.3824 26.938 33.2762 26.938H24.1657C23.0595 26.938 22.1632 27.8173 22.1632 28.8994C22.1632 29.9815 23.0595 30.8582 24.1657 30.8582ZM24.1655 44.0067H38.8178C39.924 44.0067 40.8229 43.13 40.8229 42.0479C40.8229 40.9659 39.924 40.0865 38.8178 40.0865H24.1655C23.0593 40.0865 22.1631 40.9659 22.1631 42.0479C22.1631 43.13 23.0593 44.0067 24.1655 44.0067Z" fill="#64748B"/>
</svg>
