<svg width="27" height="25" viewBox="0 0 27 25" fill="none" xmlns="http://www.w3.org/2000/svg">
<path opacity="0.4" d="M20.9044 9.48976C20.4115 9.48976 19.7587 9.47963 18.9459 9.47963C16.9637 9.47963 15.3338 7.9576 15.3338 6.1014V2.84469C15.3338 2.58849 15.1133 2.37988 14.8399 2.37988H9.06617C6.3717 2.37988 4.19385 4.43153 4.19385 6.94596V17.8574C4.19385 20.4953 6.47545 22.633 9.29098 22.633H17.8889C20.5736 22.633 22.7504 20.5946 22.7504 18.0781V9.94545C22.7504 9.68824 22.531 9.48064 22.2565 9.48166C21.795 9.48469 21.2416 9.48976 20.9044 9.48976" fill="#64748B"/>
<path opacity="0.4" d="M17.9299 2.95449C17.6035 2.63955 17.0337 2.85626 17.0337 3.29272V5.9631C17.0337 7.0831 18.0281 8.00462 19.2354 8.00462C19.9962 8.01272 21.0528 8.01474 21.9501 8.01272C22.4096 8.01171 22.6432 7.50234 22.3245 7.19449C21.1729 6.0836 19.1109 4.09272 17.9299 2.95449" fill="#64748B"/>
<path fill-rule="evenodd" clip-rule="evenodd" d="M10.1691 11.8863H13.864C14.3126 11.8863 14.6772 11.5491 14.6772 11.1328C14.6772 10.7166 14.3126 10.3784 13.864 10.3784H10.1691C9.72042 10.3784 9.35693 10.7166 9.35693 11.1328C9.35693 11.5491 9.72042 11.8863 10.1691 11.8863ZM10.1692 16.9437H16.1116C16.5603 16.9437 16.9248 16.6065 16.9248 16.1903C16.9248 15.7741 16.5603 15.4358 16.1116 15.4358H10.1692C9.72052 15.4358 9.35703 15.7741 9.35703 16.1903C9.35703 16.6065 9.72052 16.9437 10.1692 16.9437Z" fill="#64748B"/>
</svg>
