<svg width="14" height="14" viewBox="0 0 14 14" fill="none" xmlns="http://www.w3.org/2000/svg">
<path d="M13 7.00012C12.8232 7.00012 12.6536 7.07036 12.5286 7.19538C12.4036 7.32041 12.3333 7.48998 12.3333 7.66679V11.6668C12.3333 11.8436 12.2631 12.0132 12.1381 12.1382C12.0131 12.2632 11.8435 12.3335 11.6667 12.3335H2.33334C2.15653 12.3335 1.98696 12.2632 1.86194 12.1382C1.73691 12.0132 1.66668 11.8436 1.66668 11.6668V2.33346C1.66668 2.15664 1.73691 1.98708 1.86194 1.86205C1.98696 1.73703 2.15653 1.66679 2.33334 1.66679H6.33334C6.51015 1.66679 6.67972 1.59655 6.80475 1.47153C6.92977 1.3465 7.00001 1.17693 7.00001 1.00012C7.00001 0.823311 6.92977 0.653742 6.80475 0.528718C6.67972 0.403693 6.51015 0.333455 6.33334 0.333455H2.33334C1.80291 0.333455 1.2942 0.544169 0.91913 0.919242C0.544057 1.29431 0.333344 1.80302 0.333344 2.33346V11.6668C0.333344 12.1972 0.544057 12.7059 0.91913 13.081C1.2942 13.4561 1.80291 13.6668 2.33334 13.6668H11.6667C12.1971 13.6668 12.7058 13.4561 13.0809 13.081C13.456 12.7059 13.6667 12.1972 13.6667 11.6668V7.66679C13.6667 7.48998 13.5964 7.32041 13.4714 7.19538C13.3464 7.07036 13.1768 7.00012 13 7.00012ZM3.00001 7.50679V10.3335C3.00001 10.5103 3.07025 10.6798 3.19527 10.8049C3.3203 10.9299 3.48987 11.0001 3.66668 11.0001H6.49334C6.58108 11.0006 6.66806 10.9838 6.74928 10.9506C6.83051 10.9175 6.90438 10.8686 6.96668 10.8068L11.58 6.18679L13.4733 4.33346C13.5358 4.27148 13.5854 4.19775 13.6193 4.11651C13.6531 4.03527 13.6705 3.94813 13.6705 3.86012C13.6705 3.77211 13.6531 3.68498 13.6193 3.60374C13.5854 3.5225 13.5358 3.44876 13.4733 3.38679L10.6467 0.526789C10.5847 0.464303 10.511 0.414707 10.4297 0.380861C10.3485 0.347015 10.2614 0.32959 10.1733 0.32959C10.0853 0.32959 9.9982 0.347015 9.91696 0.380861C9.83572 0.414707 9.76199 0.464303 9.70001 0.526789L7.82001 2.41346L3.19334 7.03346C3.13156 7.09575 3.08267 7.16963 3.0495 7.25085C3.01632 7.33208 2.9995 7.41905 3.00001 7.50679V7.50679ZM10.1733 1.94012L12.06 3.82679L11.1133 4.77346L9.22668 2.88679L10.1733 1.94012ZM4.33334 7.78012L8.28668 3.82679L10.1733 5.71346L6.22001 9.66679H4.33334V7.78012Z" fill="#64748B"/>
</svg>
