<svg width="25" height="24" viewBox="0 0 25 24" fill="none" xmlns="http://www.w3.org/2000/svg">
<path opacity="0.4" d="M17.7581 7.29614C20.2091 7.29614 22.2041 9.35594 22.2041 11.8876V16.9199C22.2041 19.4453 20.2141 21.5 17.7681 21.5L6.6521 21.5C4.2001 21.5 2.2041 19.4412 2.2041 16.9096V11.8773C2.2041 9.35181 4.1951 7.29614 6.6421 7.29614H7.5821L17.7581 7.29614Z" fill="#64748B"/>
<path d="M12.7505 16.0374L15.6595 13.0695C15.9595 12.7627 15.9595 12.2691 15.6575 11.9634C15.3555 11.6587 14.8685 11.6597 14.5685 11.9654L12.9755 13.5905L12.9755 3.2821C12.9755 2.85042 12.6305 2.5 12.2045 2.5C11.7795 2.5 11.4355 2.85042 11.4355 3.2821L11.4355 13.5905L9.84153 11.9654C9.54153 11.6597 9.05453 11.6587 8.75253 11.9634C8.60153 12.1168 8.52553 12.3168 8.52553 12.518C8.52553 12.717 8.60153 12.9171 8.75053 13.0695L11.6595 16.0374C11.8045 16.1847 12.0005 16.268 12.2045 16.268C12.4095 16.268 12.6055 16.1847 12.7505 16.0374Z" fill="#64748B"/>
</svg>
