<svg width="24" height="30" viewBox="0 0 24 30" fill="none" xmlns="http://www.w3.org/2000/svg">
<path opacity="0.4" d="M6.447 27.3986C3.996 27.3986 2 24.8701 2 21.7637V15.5852C2 12.4852 3.99 9.96307 6.437 9.96307H17.553C20.005 9.96307 22 12.4915 22 15.5992V21.7751C22 24.8765 20.01 27.3986 17.563 27.3986H16.623H6.447Z" fill="#64748B"/>
<path d="M11.4548 2.7661L8.5458 6.31022C8.2458 6.67652 8.2458 7.26599 8.5478 7.63108C8.8498 7.99495 9.3368 7.99374 9.6368 7.62865L11.2298 5.68678V7.5486V17.9978C11.2298 18.5133 11.5748 18.9318 11.9998 18.9318C12.4258 18.9318 12.7698 18.5133 12.7698 17.9978V5.68678L14.3628 7.62865C14.6628 7.99374 15.1498 7.99495 15.4518 7.63108C15.6028 7.44793 15.6788 7.20899 15.6788 6.96883C15.6788 6.7311 15.6028 6.49216 15.4538 6.31022L12.5458 2.7661C12.4008 2.59023 12.2048 2.49077 11.9998 2.49077C11.7958 2.49077 11.5998 2.59023 11.4548 2.7661Z" fill="#64748B"/>
</svg>
