<svg width="72" height="72" viewBox="0 0 72 72" fill="none" xmlns="http://www.w3.org/2000/svg">
<path opacity="0.4" d="M56.4264 27.063C55.0719 27.063 53.2777 27.033 51.0439 27.033C45.5961 27.033 41.1166 22.524 41.1166 17.025V7.377C41.1166 6.618 40.5107 6 39.7591 6H23.8909C16.4855 6 10.5 12.078 10.5 19.527V51.852C10.5 59.667 16.7707 66 24.5087 66H48.1388C55.5175 66 61.5 59.961 61.5 52.506V28.413C61.5 27.651 60.897 27.036 60.1425 27.039C58.8741 27.048 57.3532 27.063 56.4264 27.063Z" fill="#64748B"/>
<path opacity="0.4" d="M48.2521 7.70211C47.3551 6.76911 45.7891 7.41111 45.7891 8.70411V16.6151C45.7891 19.9331 48.5221 22.6631 51.8401 22.6631C53.9311 22.6871 56.8351 22.6931 59.3011 22.6871C60.5641 22.6841 61.2061 21.1751 60.3301 20.2631C57.1651 16.9721 51.4981 11.0741 48.2521 7.70211Z" fill="#64748B"/>
<path fill-rule="evenodd" clip-rule="evenodd" d="M26.9219 34.1623H37.0769C38.3099 34.1623 39.3119 33.1633 39.3119 31.9303C39.3119 30.6973 38.3099 29.6953 37.0769 29.6953H26.9219C25.6889 29.6953 24.6899 30.6973 24.6899 31.9303C24.6899 33.1633 25.6889 34.1623 26.9219 34.1623ZM26.922 49.1449H43.254C44.487 49.1449 45.489 48.1459 45.489 46.9129C45.489 45.6799 44.487 44.6779 43.254 44.6779H26.922C25.689 44.6779 24.69 45.6799 24.69 46.9129C24.69 48.1459 25.689 49.1449 26.922 49.1449Z" fill="#64748B"/>
</svg>
