<svg width="14" height="14" viewBox="0 0 14 14" fill="none" xmlns="http://www.w3.org/2000/svg">
<path d="M6.66663 12.3333H2.66663C2.48981 12.3333 2.32025 12.2631 2.19522 12.1381C2.0702 12.013 1.99996 11.8435 1.99996 11.6666V2.33331C1.99996 2.1565 2.0702 1.98693 2.19522 1.86191C2.32025 1.73688 2.48981 1.66665 2.66663 1.66665H5.99996V3.66665C5.99996 4.19708 6.21067 4.70579 6.58575 5.08086C6.96082 5.45593 7.46953 5.66665 7.99996 5.66665H9.99996V8.99998C9.99996 9.17679 10.0702 9.34636 10.1952 9.47138C10.3202 9.59641 10.4898 9.66665 10.6666 9.66665C10.8434 9.66665 11.013 9.59641 11.138 9.47138C11.2631 9.34636 11.3333 9.17679 11.3333 8.99998V4.99998V4.95998C11.3263 4.89874 11.3129 4.8384 11.2933 4.77998V4.71998C11.2612 4.65143 11.2185 4.58842 11.1666 4.53331L7.16663 0.533313C7.11152 0.481457 7.04851 0.4387 6.97996 0.406646C6.95791 0.402786 6.93535 0.402786 6.91329 0.406646C6.84847 0.371982 6.7788 0.347261 6.70663 0.333313H2.66663C2.13619 0.333313 1.62749 0.544027 1.25241 0.9191C0.87734 1.29417 0.666626 1.80288 0.666626 2.33331V11.6666C0.666626 12.1971 0.87734 12.7058 1.25241 13.0809C1.62749 13.4559 2.13619 13.6666 2.66663 13.6666H6.66663C6.84344 13.6666 7.01301 13.5964 7.13803 13.4714C7.26305 13.3464 7.33329 13.1768 7.33329 13C7.33329 12.8232 7.26305 12.6536 7.13803 12.5286C7.01301 12.4036 6.84344 12.3333 6.66663 12.3333ZM7.33329 2.60665L9.05996 4.33331H7.99996C7.82315 4.33331 7.65358 4.26308 7.52855 4.13805C7.40353 4.01303 7.33329 3.84346 7.33329 3.66665V2.60665ZM3.99996 8.33331H7.99996C8.17677 8.33331 8.34634 8.26308 8.47136 8.13805C8.59639 8.01303 8.66663 7.84346 8.66663 7.66665C8.66663 7.48984 8.59639 7.32027 8.47136 7.19524C8.34634 7.07022 8.17677 6.99998 7.99996 6.99998H3.99996C3.82315 6.99998 3.65358 7.07022 3.52855 7.19524C3.40353 7.32027 3.33329 7.48984 3.33329 7.66665C3.33329 7.84346 3.40353 8.01303 3.52855 8.13805C3.65358 8.26308 3.82315 8.33331 3.99996 8.33331ZM6.66663 9.66665H3.99996C3.82315 9.66665 3.65358 9.73688 3.52855 9.86191C3.40353 9.98693 3.33329 10.1565 3.33329 10.3333C3.33329 10.5101 3.40353 10.6797 3.52855 10.8047C3.65358 10.9297 3.82315 11 3.99996 11H6.66663C6.84344 11 7.01301 10.9297 7.13803 10.8047C7.26305 10.6797 7.33329 10.5101 7.33329 10.3333C7.33329 10.1565 7.26305 9.98693 7.13803 9.86191C7.01301 9.73688 6.84344 9.66665 6.66663 9.66665ZM3.99996 5.66665H4.66663C4.84344 5.66665 5.01301 5.59641 5.13803 5.47138C5.26305 5.34636 5.33329 5.17679 5.33329 4.99998C5.33329 4.82317 5.26305 4.6536 5.13803 4.52858C5.01301 4.40355 4.84344 4.33331 4.66663 4.33331H3.99996C3.82315 4.33331 3.65358 4.40355 3.52855 4.52858C3.40353 4.6536 3.33329 4.82317 3.33329 4.99998C3.33329 5.17679 3.40353 5.34636 3.52855 5.47138C3.65358 5.59641 3.82315 5.66665 3.99996 5.66665ZM13.14 9.85998C13.078 9.79749 13.0043 9.7479 12.923 9.71405C12.8418 9.68021 12.7546 9.66278 12.6666 9.66278C12.5786 9.66278 12.4915 9.68021 12.4102 9.71405C12.329 9.7479 12.2553 9.79749 12.1933 9.85998L9.99996 12.06L9.13996 11.1933C9.0778 11.1312 9.00401 11.0818 8.92279 11.0482C8.84158 11.0146 8.75453 10.9973 8.66663 10.9973C8.57872 10.9973 8.49167 11.0146 8.41046 11.0482C8.32925 11.0818 8.25545 11.1312 8.19329 11.1933C8.13113 11.2555 8.08183 11.3293 8.04819 11.4105C8.01455 11.4917 7.99723 11.5787 7.99723 11.6666C7.99723 11.7546 8.01455 11.8416 8.04819 11.9228C8.08183 12.004 8.13113 12.0778 8.19329 12.14L9.52663 13.4733C9.5886 13.5358 9.66234 13.5854 9.74358 13.6192C9.82481 13.6531 9.91195 13.6705 9.99996 13.6705C10.088 13.6705 10.1751 13.6531 10.2563 13.6192C10.3376 13.5854 10.4113 13.5358 10.4733 13.4733L13.14 10.8066C13.2024 10.7447 13.252 10.6709 13.2859 10.5897C13.3197 10.5085 13.3372 10.4213 13.3372 10.3333C13.3372 10.2453 13.3197 10.1582 13.2859 10.0769C13.252 9.99569 13.2024 9.92196 13.14 9.85998Z" fill="#1E293B"/>
</svg>
