<svg width="14" height="14" viewBox="0 0 14 14" fill="none" xmlns="http://www.w3.org/2000/svg">
<path d="M13.5 14.0001H0.500014C0.414147 14.0001 0.329736 13.9779 0.254913 13.9358C0.18009 13.8937 0.117377 13.833 0.0728153 13.7596C0.0282536 13.6862 0.00334537 13.6025 0.000490166 13.5167C-0.00236504 13.4309 0.0169289 13.3458 0.0565135 13.2696L6.55651 0.769604C6.59875 0.688471 6.66243 0.62048 6.74063 0.573029C6.81883 0.525579 6.90855 0.500488 7.00001 0.500488C7.09148 0.500488 7.1812 0.525579 7.25939 0.573029C7.33759 0.62048 7.40128 0.688471 7.44351 0.769604L13.9435 13.2696C13.9831 13.3458 14.0024 13.4309 13.9995 13.5167C13.9967 13.6025 13.9718 13.6862 13.9272 13.7596C13.8827 13.833 13.8199 13.8937 13.7451 13.9358C13.6703 13.9779 13.5859 14.0001 13.5 14.0001ZM1.32501 13.0001H12.675L12.6755 12.9986L7.00101 2.0851H6.99901L1.32401 12.9986L1.32501 13.0001Z" fill="#FF857A"/>
</svg>
