<svg width="60" height="60" viewBox="0 0 60 60" fill="none" xmlns="http://www.w3.org/2000/svg">
<path opacity="0.4" d="M5.00024 30.0005C5.00024 16.1905 16.1927 5.00048 30.0002 5.00049C43.8077 5.00049 55.0002 16.1905 55.0002 30.0005C55.0002 43.8055 43.8077 55.0005 30.0002 55.0005C16.1927 55.0005 5.00024 43.8055 5.00024 30.0005" fill="#FFE14C"/>
<path fill-rule="evenodd" clip-rule="evenodd" d="M27.825 28.4233C27.825 27.2183 28.8075 26.2358 30.0125 26.2358C31.2175 26.2358 32.2 27.2183 32.2 28.4233L32.2 39.4733C32.2 40.6783 31.2175 41.6608 30.0125 41.6608C28.8075 41.6608 27.825 40.6783 27.825 39.4733L27.825 28.4233ZM32.1875 20.4913C32.1875 21.6963 31.21 22.6788 30.0125 22.6788C28.78 22.6788 27.8 21.6963 27.8 20.4913C27.8 19.2863 28.78 18.3038 29.9875 18.3038C31.2 18.3038 32.1875 19.2863 32.1875 20.4913Z" fill="#FFE14C"/>
</svg>
