<svg width="24" height="24" viewBox="0 0 24 24" fill="none" xmlns="http://www.w3.org/2000/svg">
<path fill-rule="evenodd" clip-rule="evenodd" d="M7 4C6.73478 4 6.48043 4.10536 6.29289 4.29289C6.10536 4.48043 6 4.73478 6 5V19C6 19.2652 6.10536 19.5196 6.29289 19.7071C6.48043 19.8946 6.73478 20 7 20H17C17.2652 20 17.5196 19.8946 17.7071 19.7071C17.8946 19.5196 18 19.2652 18 19L18 9.41421L12.5859 4.00011L7 4ZM4.87868 2.87868C5.44129 2.31607 6.20435 2 7 2H12.586C13.1163 2.00011 13.6251 2.21086 14.0001 2.58589M14.0001 2.58589L19.414 7.99979C19.414 7.99982 19.414 7.99975 19.414 7.99979C19.789 8.37476 19.9999 8.88345 20 9.41379V19C20 19.7957 19.6839 20.5587 19.1213 21.1213C18.5587 21.6839 17.7957 22 17 22H7C6.20435 22 5.44129 21.6839 4.87868 21.1213C4.31607 20.5587 4 19.7957 4 19V5C4 4.20435 4.31607 3.44129 4.87868 2.87868M12 9C12.5523 9 13 9.44772 13 10V13.5858L14.2929 12.2929C14.6834 11.9024 15.3166 11.9024 15.7071 12.2929C16.0976 12.6834 16.0976 13.3166 15.7071 13.7071L12.7077 16.7065C12.7053 16.7089 12.7029 16.7113 12.7005 16.7136C12.5208 16.8901 12.2746 16.9992 12.003 17C12.002 17 12.001 17 12 17C11.999 17 11.998 17 11.997 17C11.8625 16.9996 11.7343 16.9727 11.6172 16.9241C11.502 16.8764 11.3938 16.8063 11.2995 16.7136C11.2971 16.7113 11.2947 16.7089 11.2923 16.7065L8.29289 13.7071C7.90237 13.3166 7.90237 12.6834 8.29289 12.2929C8.68342 11.9024 9.31658 11.9024 9.70711 12.2929L11 13.5858V10C11 9.44772 11.4477 9 12 9Z" fill="#64748B"/>
</svg>
