<svg width="16" height="16" viewBox="0 0 16 16" fill="none" xmlns="http://www.w3.org/2000/svg">
<path d="M8 11.5C7.85166 11.5 7.70666 11.544 7.58332 11.6264C7.45999 11.7088 7.36386 11.8259 7.30709 11.963C7.25032 12.1 7.23547 12.2508 7.26441 12.3963C7.29335 12.5418 7.36478 12.6754 7.46967 12.7803C7.57456 12.8852 7.7082 12.9566 7.85368 12.9856C7.99917 13.0145 8.14997 12.9997 8.28701 12.9429C8.42406 12.8861 8.54119 12.79 8.6236 12.6667C8.70601 12.5433 8.75 12.3983 8.75 12.25C8.75 12.0511 8.67098 11.8603 8.53033 11.7197C8.38968 11.579 8.19891 11.5 8 11.5Z" fill="#FF857A"/>
<path d="M7.5 6H8.5V10.5H7.5V6Z" fill="#FF857A"/>
<path d="M14.5 15.0001H1.50001C1.41415 15.0001 1.32974 14.9779 1.25491 14.9358C1.18009 14.8937 1.11738 14.833 1.07282 14.7596C1.02825 14.6862 1.00335 14.6025 1.00049 14.5167C0.997635 14.4309 1.01693 14.3458 1.05651 14.2696L7.55651 1.7696C7.59875 1.68847 7.66243 1.62048 7.74063 1.57303C7.81883 1.52558 7.90855 1.50049 8.00001 1.50049C8.09148 1.50049 8.1812 1.52558 8.25939 1.57303C8.33759 1.62048 8.40128 1.68847 8.44351 1.7696L14.9435 14.2696C14.9831 14.3458 15.0024 14.4309 14.9995 14.5167C14.9967 14.6025 14.9718 14.6862 14.9272 14.7596C14.8827 14.833 14.8199 14.8937 14.7451 14.9358C14.6703 14.9779 14.5859 15.0001 14.5 15.0001ZM2.32501 14.0001H13.675L13.6755 13.9986L8.00101 3.0851H7.99901L2.32401 13.9986L2.32501 14.0001Z" fill="#FF857A"/>
</svg>
